<?xml version="1.0" encoding="UTF-8" standalone="no"?>
<!DOCTYPE svg PUBLIC "-//W3C//DTD SVG 1.1//EN" "http://www.w3.org/Graphics/SVG/1.1/DTD/svg11.dtd">
<svg version="1.1" xmlns="http://www.w3.org/2000/svg" xmlns:xlink="http://www.w3.org/1999/xlink" preserveAspectRatio="xMidYMid meet" viewBox="0 0 640 640" width="1500" height="1500"><defs><path d="M353.84 233.53L353.85 233.24L353.86 232.94L353.89 232.66L353.93 232.37L353.98 232.09L354.04 231.82L354.11 231.54L354.19 231.27L354.28 231.01L354.38 230.75L354.49 230.5L354.61 230.25L354.74 230.01L354.87 229.77L355.02 229.54L355.17 229.32L355.33 229.1L355.5 228.89L355.68 228.68L355.86 228.48L356.05 228.29L356.25 228.11L356.45 227.94L356.66 227.77L356.88 227.61L357.1 227.46L357.33 227.32L357.56 227.19L357.8 227.07L358.05 226.95L358.3 226.85L358.55 226.76L358.81 226.67L359.07 226.6L359.34 226.54L359.61 226.49L359.89 226.44L360.16 226.42L360.44 226.4L360.73 226.39L388.27 226.39L388.56 226.4L388.84 226.42L389.12 226.44L389.39 226.49L389.66 226.54L389.93 226.6L390.19 226.67L390.45 226.76L390.7 226.85L390.95 226.95L391.2 227.07L391.44 227.19L391.67 227.32L391.9 227.46L392.12 227.61L392.34 227.77L392.55 227.94L392.75 228.11L392.95 228.29L393.14 228.48L393.33 228.68L393.5 228.89L393.67 229.1L393.83 229.32L393.98 229.54L394.13 229.77L394.26 230.01L394.39 230.25L394.51 230.5L394.62 230.75L394.72 231.01L394.81 231.27L394.89 231.54L394.96 231.82L395.02 232.09L395.07 232.37L395.11 232.66L395.14 232.94L395.15 233.24L395.16 233.53L395.16 308.48L422.71 340.6L395.16 340.6L395.16 440.54L333.84 440.54L333.84 440.52L333.85 440.21L333.85 370.87L333.84 370.56L333.82 370.24L333.79 369.93L333.75 369.63L333.7 369.32L333.64 369.02L333.57 368.73L333.48 368.44L333.39 368.16L333.29 367.88L333.18 367.6L333.05 367.34L332.92 367.07L332.78 366.82L332.63 366.57L332.48 366.33L332.31 366.09L332.14 365.86L331.95 365.64L331.76 365.43L331.57 365.22L331.36 365.03L331.15 364.84L330.94 364.66L330.71 364.49L330.48 364.33L330.25 364.17L330 364.03L329.76 363.9L329.5 363.78L329.25 363.67L328.98 363.56L328.72 363.47L328.45 363.4L328.17 363.33L327.89 363.27L327.61 363.23L327.32 363.2L327.03 363.18L326.74 363.17L298.3 363.17L298.01 363.18L297.72 363.2L297.43 363.23L297.15 363.27L296.87 363.33L296.6 363.4L296.32 363.47L296.06 363.56L295.8 363.67L295.54 363.78L295.29 363.9L295.04 364.03L294.8 364.17L294.56 364.33L294.33 364.49L294.11 364.66L293.89 364.84L293.68 365.03L293.47 365.22L293.28 365.43L293.09 365.64L292.91 365.86L292.73 366.09L292.57 366.33L292.41 366.57L292.26 366.82L292.12 367.07L291.99 367.34L291.87 367.6L291.75 367.88L291.65 368.16L291.56 368.44L291.47 368.73L291.4 369.02L291.34 369.32L291.29 369.63L291.25 369.93L291.22 370.24L291.2 370.56L291.19 370.87L291.19 440.21L291.2 440.52L291.2 440.54L229.88 440.54L229.88 340.6L202.34 340.6L312.52 212.12L353.84 260.3L353.84 233.53Z" id="a387SUudwj"></path></defs><g><g><g><use xlink:href="#a387SUudwj" opacity="1" fill="#c82626" fill-opacity="1"></use></g></g></g></svg>